<svg width="60" height="60" viewBox="0 0 60 60" fill="none" xmlns="http://www.w3.org/2000/svg">
<path d="M60 30C60 13.4269 46.5619 0 30 0C13.4269 0 0 13.4269 0 30C0 44.97 10.9669 57.3825 25.3125 59.6306V38.6738H17.6944V30.0019H25.3125V23.3888C25.3125 15.8719 29.7844 11.7206 36.6394 11.7206C39.9225 11.7206 43.3594 12.3056 43.3594 12.3056V19.6875H39.57C35.85 19.6875 34.6875 22.0031 34.6875 24.375V30H43.0069L41.67 38.6719H34.6875V59.6288C49.0219 57.3806 60 44.9681 60 29.9981V30Z" fill="black"/>
</svg>
