<svg width="61" height="60" viewBox="0 0 61 60" fill="none" xmlns="http://www.w3.org/2000/svg">
<path d="M51.2998 0H9.2998C4.32924 0 0.299805 4.02944 0.299805 9V51C0.299805 55.9706 4.32924 60 9.2998 60H51.2998C56.2704 60 60.2998 55.9706 60.2998 51V9C60.2998 4.02944 56.2704 0 51.2998 0Z" fill="black"/>
<path d="M51.2998 0H9.2998C4.32924 0 0.299805 4.02944 0.299805 9V51C0.299805 55.9706 4.32924 60 9.2998 60H51.2998C56.2704 60 60.2998 55.9706 60.2998 51V9C60.2998 4.02944 56.2704 0 51.2998 0Z" fill="url(#paint0_radial_97_3031)"/>
<path d="M51.2998 0H9.2998C4.32924 0 0.299805 4.02944 0.299805 9V51C0.299805 55.9706 4.32924 60 9.2998 60H51.2998C56.2704 60 60.2998 55.9706 60.2998 51V9C60.2998 4.02944 56.2704 0 51.2998 0Z" fill="url(#paint1_linear_97_3031)"/>
<path d="M38.8545 11.953H21.7451C16.5027 11.953 12.2529 16.2028 12.2529 21.4452V38.5546C12.2529 43.797 16.5027 48.0468 21.7451 48.0468H38.8545C44.0969 48.0468 48.3467 43.797 48.3467 38.5546V21.4452C48.3467 16.2028 44.0969 11.953 38.8545 11.953Z" stroke="white" stroke-width="4.93943"/>
<path d="M30.2998 38.4371C34.9597 38.4371 38.7373 34.6595 38.7373 29.9996C38.7373 25.3397 34.9597 21.5621 30.2998 21.5621C25.6399 21.5621 21.8623 25.3397 21.8623 29.9996C21.8623 34.6595 25.6399 38.4371 30.2998 38.4371Z" stroke="white" stroke-width="4.93943"/>
<path d="M40.9639 20.0387C41.3522 20.0387 41.667 19.7239 41.667 19.3356C41.667 18.9472 41.3522 18.6324 40.9639 18.6324C40.5755 18.6324 40.2607 18.9472 40.2607 19.3356C40.2607 19.7239 40.5755 20.0387 40.9639 20.0387Z" stroke="white" stroke-width="4.93943"/>
<defs>
<radialGradient id="paint0_radial_97_3031" cx="0" cy="0" r="1" gradientUnits="userSpaceOnUse" gradientTransform="translate(24.2998 60) scale(60)">
<stop offset="0.1" stop-color="#FFDD55"/>
<stop offset="0.5" stop-color="#FF543E"/>
<stop offset="1" stop-color="#C837AB"/>
</radialGradient>
<linearGradient id="paint1_linear_97_3031" x1="0.299805" y1="0" x2="12.2998" y2="60" gradientUnits="userSpaceOnUse">
<stop offset="0.1" stop-color="#3771C8"/>
<stop offset="0.5" stop-color="#6600FF" stop-opacity="0"/>
</linearGradient>
</defs>
</svg>
